PathFileType	4	(X/Y/Z)	RBDS025\RBDS025runT45.trc
DataRate	CameraRate	NumFrames	NumMarkers	Units	OrigDataRate	OrigDataStartFrame	OrigNumFrames
150.000000	150.000000	4	33	mm	150.000000	0	4500
Frame#	Time	L.ASIS			L.Heel.Bottom			L.Heel.Lateral			L.Heel.Top			L.Iliac.Crest			L.MT1			L.MT5			L.PSIS			L.Shank.Bottom.Lateral			L.Shank.Bottom.Medial			L.Shank.Top.Lateral			L.Shank.Top.Medial			L.Thigh.Bottom.Lateral			L.Thigh.Bottom.Medial			L.Thigh.Top.Lateral			L.Thigh.Top.Medial			R.ASIS			R.ASY			R.Heel.Bottom			R.Heel.Lateral			R.Heel.Top			R.Iliac.Crest			R.MT1			R.MT5			R.PSIS			R.Shank.Bottom.Lateral			R.Shank.Bottom.Medial			R.Shank.Top.Lateral			R.Shank.Top.Medial			R.Thigh.Bottom.Lateral			R.Thigh.Bottom.Medial			R.Thigh.Top.Lateral			R.Thigh.Top.Medial			
		X1	Y1	Z1	X2	Y2	Z2	X3	Y3	Z3	X4	Y4	Z4	X5	Y5	Z5	X6	Y6	Z6	X7	Y7	Z7	X8	Y8	Z8	X9	Y9	Z9	X10	Y10	Z10	X11	Y11	Z11	X12	Y12	Z12	X13	Y13	Z13	X14	Y14	Z14	X15	Y15	Z15	X16	Y16	Z16	X17	Y17	Z17	X18	Y18	Z18	X19	Y19	Z19	X20	Y20	Z20	X21	Y21	Z21	X22	Y22	Z22	X23	Y23	Z23	X24	Y24	Z24	X25	Y25	Z25	X26	Y26	Z26	X27	Y27	Z27	X28	Y28	Z28	X29	Y29	Z29	X30	Y30	Z30	X31	Y31	Z31	X32	Y32	Z32	X33	Y33	Z33	

1	0	2084.720965701864	896.4697996388201	889.515777832056	1551.158871417018	124.3002479651582	1002.39553514334	1577.80676486965	129.3551786416874	954.434059479643	1579.807065588042	158.4891452404929	998.5853074372899	2020.600870756518	980.9260880570297	845.2245072409936	1737.000542634628	37.96351002651015	1010.517590210402	1696.758879317472	49.36876203113317	903.4012081792918	1939.784483292708	979.812981072273	952.4925577746344	1705.565049267077	208.3884498046351	922.7099357960176	1668.611212382118	243.5402423542894	945.7310907605836	1749.145995756686	271.4637152354058	897.9353459645625	1711.606433093505	306.2053886243938	916.4921671715599	1930.241421050722	562.4436842974343	847.201142396207	1866.017337477318	571.5683590636203	880.3193243005363	1935.255548913552	669.7375366024354	830.5511267189569	1877.034792891941	679.5505135843252	867.4211694820799	2107.602472136869	905.4025003122622	1086.849178037399	1926.632338084805	180.0355674449527	1088.498541394411	1788.233663309553	301.3169963336742	1039.096375874369	1815.84095118241	298.9837627713878	1084.710425510227	1830.219641655932	317.9258555105336	1040.8833713979	2056.21843426239	972.4583399077189	1139.639979234084	1912.565608782833	128.2080526396014	1050.463027844147	1877.674724716574	166.5307740673448	1148.181777702284	1948.575630672137	976.4825558971019	1055.438592556859	1952.303784028195	343.089861635091	1110.796281145022	1932.081937424417	373.8243866775622	1074.95603600551	2016.507557391076	397.9151261170937	1119.306181960699	1991.581703633071	427.8714510059118	1082.434502357351	2167.186123820492	588.7808754490283	1148.643235776433	2115.561782324656	556.5852210784595	1111.109599247532	2100.841308517807	675.0749415380117	1167.45566596302	2049.664691098007	641.3706426715639	1134.40587668632	
2	0.006666666666666667	2087.504537379028	898.3331991244117	891.173043322554	1534.14313900724	139.7539783432954	999.1492702970689	1560.30417457206	141.4310031098139	950.9536645636788	1564.895129571707	171.2108955431629	994.1311164384496	2027.463249649331	983.5434527560623	845.3779485019292	1712.167167770897	40.13103416066033	1008.087681537137	1670.759189259027	51.69210316374181	901.6723778256505	1943.096943215953	983.3763000375155	951.6185767768728	1686.092997396742	218.7069713853131	917.3950220836509	1650.067566980115	252.4759071138551	943.0450526341069	1728.62255748322	282.8134489130752	893.6041431658605	1692.104559925457	316.3048548335798	914.9966384424147	1916.683819734129	572.1287532728221	845.5741313572977	1853.653216809365	584.2455529384164	879.4230358072123	1927.155095411554	678.592450383725	829.679950152115	1870.177507410906	691.10187143788	867.3538152440134	2109.362830538644	911.2400977256959	1087.928107280756	1962.281259515373	168.7270011220667	1087.001509294377	1814.166530961052	274.8062796527009	1035.839770959375	1840.994769073858	275.1919862571732	1081.660526511991	1853.888329464886	295.3104755894703	1037.741392882863	2058.733544049602	980.0540093923956	1140.012371023023	1954.176105823821	116.137595962662	1049.131591696398	1914.461134909389	150.5662540982918	1146.332233194153	1950.720967405064	981.419201662336	1055.034141951212	1973.052801309424	331.4165451437805	1108.559279182201	1950.543783549089	360.1879841188257	1072.637750420113	2031.721400142074	391.1515551962927	1117.285382620645	2004.911224139056	418.7047073618297	1080.291496553206	2172.173991122721	596.9358680223842	1146.897285811108	2120.676324700918	564.4342506377232	1109.426538297176	2104.917419474846	682.2078697872399	1166.761270936499	2054.293794770962	648.6556419034725	1132.969925101411	
3	0.01333333333333333	2090.183894343891	900.1516937521868	892.7508506048443	1517.338567565233	155.3711080808395	995.6364504944542	1543.0500629997	153.7492767310286	947.2570312171492	1550.131344206542	184.1206135993458	989.4954317877672	2034.263059567232	986.034196907993	845.5349457422951	1687.479119557802	42.8084425227968	1005.591061869771	1645.127135005901	54.53594802635589	899.8225770921341	1946.317905493054	986.8605812033152	950.7569824152231	1666.990977286327	229.1119945348589	912.1103496238728	1631.817257662993	261.5947218067049	940.1970048527904	1708.586834498938	294.1689760057918	889.3049130645111	1673.011972918886	326.4999312917975	913.3275507451747	1903.415760949145	581.7932195664691	844.0564377770913	1841.615192216114	596.8252400873616	878.6956874101244	1919.229459346256	687.4011270929718	828.8975462882811	1863.551194303147	702.5225468883381	867.4447495765833	2111.064157124638	916.8694109648744	1088.953291192496	1998.007480923964	157.83242328999	1085.335155747919	1840.560974053224	248.5700671496716	1032.69345254685	1866.616526781933	251.64081664227	1078.690429035679	1877.942361715309	272.8884775908092	1034.690549619105	2061.145209468553	987.4055859607009	1140.33558755036	1995.784354229702	104.6334557714087	1047.587198793308	1951.524818642892	135.079583146818	1144.362761771122	1952.82768686206	986.1912536727555	1054.621964047039	1993.987280044543	319.7836209859528	1106.363551268301	1969.214220291726	346.5799678309289	1070.408838113719	2047.075835426603	384.2613880575673	1115.342595787529	2018.387101695724	409.4150817338383	1078.276497739094	2176.936411334217	604.7252202659362	1145.151321644708	2125.505375990828	571.8900876982261	1107.871732536502	2108.849514390708	689.0613791353271	1166.010597969389	2058.712351271646	655.6276824685197	1131.636666853719	
4	0.02	2092.661869664492	901.8986598439411	894.1741862490094	1500.830862490152	171.3027793744923	991.6136508457543	1526.173799722807	166.5253052985938	943.1516270556607	1535.55278308896	197.4001987885352	984.5215467486778	2040.896956643184	988.3201452578512	845.705705171031	1663.01160660797	46.44082922907005	1002.977229944028	1620.133627896516	58.34327705219665	897.7520261276089	1949.361915899246	990.2175370094972	949.9354360227865	1648.542759502422	239.6878276669709	906.8886905656487	1614.077108887763	271.0787972804681	937.042401815752	1689.441700207789	305.5405801605174	885.0698167431146	1654.663603712899	336.8915068630685	911.3307318390127	1890.720103469013	591.4049357049217	842.7433798589877	1830.203008288645	609.2102265162632	878.2581478018546	1911.658280638235	696.1115817566437	828.2740742414327	1857.36701201575	713.6887979431111	867.7993530206924	2112.650918197252	922.1007542589135	1089.867459119227	2033.927576015873	147.8327456882705	1083.342177083402	1867.964966232229	222.8941914456398	1029.73779856868	1893.251084141189	228.5846179922694	1075.857194713695	1902.835571115321	250.859704932913	1031.804545639184	2063.366449754816	994.2779729797824	1140.574434802876	2037.427703171058	94.35154956900718	1045.626942104259	1989.202178489883	120.6203110611615	1142.147764943646	1954.862405017487	990.6681114799646	1054.208271471915	2015.323125904963	308.2705630903556	1104.241388933286	1988.33929308459	333.0623887577394	1068.337843178926	2062.727643227196	377.1587027814693	1113.548181795591	2032.184414384735	399.9133997985691	1076.496412692313	2181.247283551453	611.8112914392943	1143.435349741393	2129.777747080007	578.6052072426243	1106.562617501492	2112.484160114388	695.3721546122625	1165.187385299019	2062.711669134198	662.0062297397888	1130.507913957024	
